<svg width="103" height="30" viewBox="0 0 103 30" fill="none" xmlns="http://www.w3.org/2000/svg">
<path d="M12.1941 23.7156C11.4131 25.0004 9.46038 25.0004 8.6793 23.7156L0.274902 9.89084C-0.506174 8.60603 0.470167 7.00002 2.03232 7.00002L18.8411 7C20.4033 7 21.3796 8.60603 20.5985 9.89084L12.1941 23.7156Z" fill="#CFDCBB"/>
<path fill-rule="evenodd" clip-rule="evenodd" d="M24.0592 27.3516L24.0592 27.3516L15.6548 13.5269C15.3014 12.9455 14.376 12.9455 14.0225 13.5269L5.61811 27.3516C5.32412 27.8352 5.64004 28.5864 6.43425 28.5864L23.2431 28.5864C24.0373 28.5864 24.3532 27.8352 24.0592 27.3516ZM16.5961 12.9627C15.815 11.6779 13.8623 11.6779 13.0812 12.9627L4.67685 26.7874C3.89577 28.0722 4.87211 29.6782 6.43425 29.6782L23.2431 29.6782C24.8052 29.6782 25.7816 28.0722 25.0005 26.7874L16.5961 12.9627Z" fill="#4A7848"/>
<path d="M87.0971 18.5929C87.0789 19.4767 87.2049 20.3575 87.47 21.2008C88.0697 23.0953 89.3887 24.2024 91.0929 24.2544C92.8146 24.3063 94.2709 23.2452 94.8987 21.3767C95.5427 19.5186 95.5053 17.4924 94.7932 15.6593C94.095 13.8328 92.7425 12.8716 91.114 12.9435C89.3922 13.0175 88.0785 14.1106 87.4735 15.9851C87.2082 16.8284 87.0811 17.7091 87.0971 18.5929V18.5929ZM91.2452 7.20215C94.1715 7.25411 96.88 7.94955 99.084 10.0998C101.724 12.6777 102.522 16.039 102.245 19.704C101.781 25.8171 97.8033 29.7 91.8707 29.9857C90.1881 30.0881 88.5018 29.8585 86.9079 29.3103C83.0062 27.9294 80.7966 24.9958 80.2773 20.6573C79.7877 16.5646 80.5286 12.8396 83.5684 9.9919C85.765 7.93556 88.4195 7.23612 91.2452 7.20215V7.20215Z" fill="white"/>
<path d="M34.8851 12.9381H32.6836V7.29082H34.8851C34.8851 7.29082 34.8811 6.30111 34.8851 5.84782C34.8969 4.68391 34.8824 3.98962 34.889 2.82573C34.8924 2.2387 35.0923 1.68914 35.8794 1.57673C38.0778 1.26275 39.7083 1.04967 41.9061 0.738904C41.9279 0.736923 41.9517 0.756719 42.0625 0.806204V7.26311C43.4842 7.26311 43.3809 7.24179 44.964 7.24926C45.59 7.25221 46.2486 7.37264 46.5252 8.47828C46.9182 10.0499 47.3391 12.8887 47.3391 12.8887H42.0705C42.0705 12.8887 42.0724 13.5181 42.0705 13.7893C42.0625 15.9093 42.0612 18.0286 42.0665 20.1472C42.0705 23.2233 43.2732 24.4415 46.1957 23.4696C46.5105 23.3647 46.8174 23.2301 47.2253 23.0737C47.752 24.3465 48.2591 25.6055 48.7895 26.8564C49.1452 27.6954 48.8527 28.3595 47.7628 28.8011C45.3042 29.7971 41.9617 30.012 39.4418 28.8666C36.2714 27.4256 34.9365 25.0107 34.8969 21.5289C34.8672 18.9952 34.893 16.4635 34.8851 13.9298C34.8831 13.6309 34.8851 12.9381 34.8851 12.9381Z" fill="white"/>
<path d="M52.4414 7.38438C53.5731 7.38438 54.9622 7.38834 56.0662 7.3824C56.3887 7.38042 56.5368 7.59698 56.64 7.83171C57.1205 8.92532 57.7383 10.2072 57.7383 10.2072C57.7383 10.2072 58.3802 9.6918 58.6078 9.54335C60.4617 8.33991 61.568 7.94483 63.1432 7.4136C64.4083 6.98697 64.857 7.78069 65.0543 8.60988C65.4352 10.2101 66.0133 13.1864 66.0133 13.1864C65.0193 13.4811 62.6503 14.0717 60.7054 15.4078C60.0327 15.869 59.6002 16.4622 59.6002 17.7374C59.6002 21.5382 59.6196 24.955 59.6137 28.7553V29.64H52.4414V7.38438Z" fill="white"/>
<path d="M69.3369 8.21826H75.0527C75.4223 8.21826 75.7766 8.36393 76.0379 8.62322C76.2992 8.88251 76.446 9.23418 76.446 9.60088V29.6405H69.3369V8.21826Z" fill="white"/>
<path d="M72.8453 6.92529C74.7829 6.92529 76.3537 5.37501 76.3537 3.46265C76.3537 1.55028 74.7829 0 72.8453 0C70.9077 0 69.3369 1.55028 69.3369 3.46265C69.3369 5.37501 70.9077 6.92529 72.8453 6.92529Z" fill="white"/>
</svg>
