<svg width="190" height="44" viewBox="0 0 190 44" fill="none" xmlns="http://www.w3.org/2000/svg">
    <g clip-path="url(#clip0_4534_2299)">
        <path fillRule="evenodd" clipRule="evenodd"
            d="M5.08802 18.2965L0.676841 13.8853C0.511813 13.7202 0.456549 13.4756 0.535442 13.2591L1.97344 9.30906C2.10684 8.94242 2.55314 8.81017 2.87367 9.03961C4.79379 10.4136 7.49599 10.2386 9.19925 8.53499C10.8995 6.83516 11.0237 4.19432 9.64861 2.28601C9.41535 1.96282 9.54989 1.51118 9.92187 1.38045L13.7587 0.0331629C13.974 -0.0423006 14.2153 0.0133442 14.3784 0.176467L18.793 4.59146L5.08802 18.2965ZM34.0236 19.8219L38.4363 24.2346C38.5998 24.3981 38.6555 24.6397 38.5793 24.8551L37.2209 28.706C37.0898 29.0776 36.6386 29.2117 36.3157 28.9789C34.4086 27.6026 31.7963 27.7143 30.0988 29.4122C28.3974 31.1136 28.2213 33.8013 29.5945 35.7229C29.8232 36.0431 29.6914 36.4882 29.3258 36.6224L25.3549 38.0768C25.138 38.1564 24.8929 38.1012 24.7275 37.9361L20.3186 33.5269L34.0236 19.8219Z"
            fill="#FCA311" />
        <path fillRule="evenodd" clipRule="evenodd"
            d="M37.2323 9.42196C37.1016 9.04998 36.65 8.91544 36.3268 9.14831C34.4185 10.5238 31.7776 10.3992 30.0778 8.69934C28.3742 6.99569 28.1992 4.29387 29.5732 2.37375C29.8026 2.05322 29.67 1.60692 29.3037 1.47352L25.3537 0.0355261C25.1372 -0.0433675 24.8925 0.011515 24.7275 0.176544L0.676785 24.2277C0.511375 24.3927 0.456493 24.6377 0.535768 24.855L1.99053 28.826C2.12431 29.1911 2.56947 29.3233 2.88962 29.0947C4.81127 27.7215 7.49898 27.8972 9.20072 29.5989C10.8983 31.2964 11.0103 33.9083 9.63407 35.8155C9.40082 36.1387 9.53497 36.5899 9.90657 36.721L13.7575 38.0794C13.9732 38.1552 14.2148 38.0996 14.3784 37.9361L38.4359 13.8785C38.5994 13.715 38.6551 13.4737 38.5796 13.2584L37.2323 9.42196Z"
            fill="#009CD6" />
    </g>
    <path
        d="M58.0547 15.1204V35H55.8684V15.1204H58.0547ZM55.4825 9.3696C55.4825 8.95315 55.6111 8.60406 55.8684 8.32234C56.1378 8.02837 56.5053 7.88138 56.9707 7.88138C57.4362 7.88138 57.8036 8.02837 58.0731 8.32234C58.3548 8.60406 58.4957 8.95315 58.4957 9.3696C58.4957 9.77381 58.3548 10.1229 58.0731 10.4169C57.8036 10.6986 57.4362 10.8394 56.9707 10.8394C56.5053 10.8394 56.1378 10.6986 55.8684 10.4169C55.6111 10.1229 55.4825 9.77381 55.4825 9.3696ZM65.846 19.3645V35H63.6596V15.1204H65.7541L65.846 19.3645ZM65.3499 23.8292L64.3761 23.278C64.4496 22.1021 64.6885 20.9997 65.0927 19.9708C65.4969 18.942 66.0419 18.0356 66.7279 17.2516C67.426 16.4677 68.2406 15.8553 69.1715 15.4143C70.1146 14.9734 71.1558 14.7529 72.2949 14.7529C73.2871 14.7529 74.1751 14.8876 74.959 15.1571C75.7429 15.4266 76.4105 15.8553 76.9617 16.4432C77.5129 17.0312 77.9293 17.7845 78.211 18.7031C78.505 19.6218 78.652 20.7425 78.652 22.0654V35H76.4472V22.047C76.4472 20.6751 76.2574 19.6034 75.8777 18.8317C75.4979 18.0478 74.959 17.4905 74.2608 17.1598C73.5626 16.8291 72.7359 16.6637 71.7805 16.6637C70.7271 16.6637 69.8023 16.8964 69.0061 17.3619C68.2222 17.8151 67.5608 18.4091 67.0218 19.1441C66.4951 19.8667 66.0909 20.6445 65.8092 21.4774C65.5275 22.2981 65.3744 23.082 65.3499 23.8292ZM97.0261 15.1204H99.0655V34.6509C99.0655 36.378 98.7348 37.8601 98.0733 39.0972C97.4242 40.3343 96.4994 41.2836 95.299 41.945C94.1109 42.6064 92.7084 42.9372 91.0916 42.9372C90.2709 42.9372 89.4258 42.8085 88.5561 42.5513C87.6987 42.3063 86.8842 41.9266 86.1125 41.4122C85.3531 40.91 84.7039 40.2853 84.1649 39.5381L85.3959 38.1969C86.2044 39.1768 87.0679 39.8934 87.9865 40.3466C88.9052 40.812 89.8973 41.0447 90.963 41.0447C92.2246 41.0447 93.2902 40.7936 94.1599 40.2914C95.0418 39.7892 95.7093 39.0666 96.1625 38.1234C96.628 37.1803 96.8607 36.0473 96.8607 34.7244V19.4931L97.0261 15.1204ZM83.0626 25.2623V24.8765C83.0626 23.3331 83.234 21.9429 83.577 20.7058C83.9322 19.4564 84.4405 18.3908 85.102 17.5089C85.7634 16.6147 86.5657 15.9349 87.5088 15.4695C88.4642 14.9918 89.5421 14.7529 90.7425 14.7529C91.8939 14.7529 92.9166 14.9428 93.8108 15.3225C94.7049 15.7022 95.4766 16.2472 96.1258 16.9577C96.775 17.6681 97.2955 18.5133 97.6875 19.4931C98.0917 20.473 98.3857 21.5632 98.5694 22.7636V27.6692C98.4224 28.796 98.153 29.831 97.761 30.7742C97.369 31.7051 96.8485 32.5196 96.1993 33.2178C95.5501 33.9037 94.7662 34.4366 93.8475 34.8163C92.9411 35.1837 91.8939 35.3675 90.7057 35.3675C89.5176 35.3675 88.452 35.1225 87.5088 34.6325C86.5657 34.1426 85.7634 33.4505 85.102 32.5564C84.4405 31.65 83.9322 30.5782 83.577 29.3411C83.234 28.104 83.0626 26.7444 83.0626 25.2623ZM85.2673 24.8765V25.2623C85.2673 26.4259 85.3837 27.5038 85.6164 28.4959C85.8491 29.4881 86.2044 30.3516 86.6821 31.0865C87.1597 31.8215 87.7661 32.3972 88.501 32.8136C89.2359 33.2301 90.0994 33.4383 91.0916 33.4383C92.3532 33.4383 93.4127 33.1994 94.2701 32.7217C95.1275 32.2318 95.8073 31.5887 96.3095 30.7926C96.8117 29.9842 97.1792 29.1023 97.4119 28.1469V22.4328C97.2772 21.7837 97.0689 21.1222 96.7872 20.4485C96.5178 19.7749 96.138 19.1563 95.6481 18.5929C95.1704 18.0172 94.558 17.5579 93.8108 17.2149C93.0759 16.8597 92.1817 16.6821 91.1283 16.6821C90.1239 16.6821 89.2482 16.8903 88.501 17.3068C87.7661 17.7232 87.1597 18.305 86.6821 19.0522C86.2044 19.7871 85.8491 20.6507 85.6164 21.6428C85.3837 22.6349 85.2673 23.7128 85.2673 24.8765ZM106.599 18.4091V35H104.413V15.1204H106.544L106.599 18.4091ZM113.636 14.9734L113.581 16.9944C113.336 16.9577 113.097 16.927 112.865 16.9025C112.632 16.8781 112.381 16.8658 112.111 16.8658C111.156 16.8658 110.317 17.0434 109.594 17.3986C108.884 17.7416 108.284 18.2254 107.794 18.8501C107.304 19.4625 106.93 20.1852 106.673 21.0181C106.416 21.8388 106.269 22.7207 106.232 23.6638L105.424 23.9762C105.424 22.6778 105.558 21.4713 105.828 20.3567C106.097 19.2421 106.508 18.2683 107.059 17.4354C107.622 16.5902 108.327 15.9349 109.172 15.4695C110.029 14.9918 111.034 14.7529 112.185 14.7529C112.467 14.7529 112.742 14.7774 113.012 14.8264C113.293 14.8631 113.502 14.9121 113.636 14.9734ZM124 35.3675C122.701 35.3675 121.507 35.1286 120.417 34.6509C119.339 34.1732 118.396 33.4995 117.588 32.6299C116.791 31.7602 116.173 30.7313 115.732 29.5432C115.303 28.3428 115.089 27.0322 115.089 25.6114V24.8213C115.089 23.2902 115.315 21.9061 115.769 20.669C116.222 19.4319 116.847 18.3724 117.643 17.4905C118.439 16.6086 119.345 15.9349 120.362 15.4695C121.391 14.9918 122.469 14.7529 123.596 14.7529C124.857 14.7529 125.978 14.9795 126.958 15.4327C127.938 15.8737 128.758 16.5045 129.42 17.3251C130.094 18.1335 130.602 19.0951 130.945 20.2097C131.288 21.3121 131.459 22.5308 131.459 23.8659V25.2072H116.412V23.3331H129.273V23.0759C129.248 21.9613 129.022 20.9201 128.593 19.9525C128.177 18.9726 127.552 18.1764 126.719 17.564C125.886 16.9515 124.845 16.6453 123.596 16.6453C122.665 16.6453 121.807 16.8413 121.023 17.2333C120.252 17.6252 119.584 18.1887 119.021 18.9236C118.47 19.6463 118.041 20.5098 117.735 21.5142C117.441 22.5063 117.294 23.6087 117.294 24.8213V25.6114C117.294 26.7138 117.453 27.7426 117.771 28.698C118.102 29.6412 118.568 30.4741 119.168 31.1968C119.78 31.9195 120.503 32.4829 121.336 32.8871C122.169 33.2913 123.087 33.4934 124.092 33.4934C125.268 33.4934 126.309 33.2791 127.215 32.8504C128.121 32.4094 128.936 31.7173 129.659 30.7742L131.037 31.8398C130.608 32.4768 130.069 33.0647 129.42 33.6036C128.783 34.1426 128.017 34.5713 127.123 34.8898C126.229 35.2082 125.188 35.3675 124 35.3675ZM147.298 29.929C147.298 29.3901 147.163 28.8573 146.894 28.3306C146.624 27.8039 146.104 27.3201 145.332 26.8791C144.573 26.4382 143.452 26.0646 141.97 25.7584C140.867 25.5134 139.881 25.2378 139.012 24.9316C138.154 24.6254 137.432 24.2579 136.844 23.8292C136.256 23.4005 135.809 22.886 135.502 22.2859C135.196 21.6857 135.043 20.9752 135.043 20.1546C135.043 19.4197 135.202 18.7276 135.521 18.0784C135.851 17.417 136.317 16.8413 136.917 16.3514C137.53 15.8492 138.264 15.4572 139.122 15.1755C139.992 14.8938 140.965 14.7529 142.043 14.7529C143.574 14.7529 144.885 15.0163 145.975 15.5429C147.077 16.0574 147.916 16.7617 148.492 17.6558C149.08 18.55 149.374 19.5605 149.374 20.6874H147.188C147.188 20.0015 146.986 19.3523 146.581 18.7399C146.189 18.1274 145.608 17.6252 144.836 17.2333C144.076 16.8413 143.146 16.6453 142.043 16.6453C140.904 16.6453 139.979 16.8168 139.269 17.1598C138.558 17.5027 138.038 17.9376 137.707 18.4643C137.389 18.991 137.229 19.536 137.229 20.0995C137.229 20.5404 137.297 20.9446 137.432 21.3121C137.579 21.6673 137.836 21.998 138.203 22.3042C138.583 22.6104 139.122 22.8983 139.82 23.1678C140.518 23.4372 141.425 23.7006 142.539 23.9578C144.144 24.313 145.454 24.7478 146.471 25.2623C147.5 25.7645 148.259 26.3892 148.749 27.1363C149.239 27.8713 149.484 28.7654 149.484 29.8188C149.484 30.6395 149.313 31.3928 148.97 32.0787C148.627 32.7524 148.131 33.3342 147.482 33.8241C146.845 34.3141 146.073 34.6938 145.167 34.9633C144.272 35.2327 143.268 35.3675 142.153 35.3675C140.475 35.3675 139.055 35.0919 137.891 34.5407C136.74 33.9772 135.864 33.2423 135.264 32.3359C134.676 31.4173 134.382 30.4435 134.382 29.4146H136.568C136.642 30.4435 136.966 31.258 137.542 31.8582C138.117 32.4461 138.822 32.8626 139.655 33.1076C140.5 33.3526 141.333 33.475 142.153 33.475C143.28 33.475 144.223 33.3097 144.983 32.979C145.742 32.6483 146.318 32.2134 146.71 31.6745C147.102 31.1355 147.298 30.5537 147.298 29.929ZM165.966 29.929C165.966 29.3901 165.831 28.8573 165.562 28.3306C165.292 27.8039 164.772 27.3201 164 26.8791C163.241 26.4382 162.12 26.0646 160.638 25.7584C159.535 25.5134 158.549 25.2378 157.68 24.9316C156.822 24.6254 156.1 24.2579 155.512 23.8292C154.924 23.4005 154.477 22.886 154.17 22.2859C153.864 21.6857 153.711 20.9752 153.711 20.1546C153.711 19.4197 153.87 18.7276 154.189 18.0784C154.52 17.417 154.985 16.8413 155.585 16.3514C156.198 15.8492 156.933 15.4572 157.79 15.1755C158.66 14.8938 159.633 14.7529 160.711 14.7529C162.242 14.7529 163.553 15.0163 164.643 15.5429C165.745 16.0574 166.585 16.7617 167.16 17.6558C167.748 18.55 168.042 19.5605 168.042 20.6874H165.856C165.856 20.0015 165.654 19.3523 165.249 18.7399C164.857 18.1274 164.276 17.6252 163.504 17.2333C162.745 16.8413 161.814 16.6453 160.711 16.6453C159.572 16.6453 158.647 16.8168 157.937 17.1598C157.227 17.5027 156.706 17.9376 156.375 18.4643C156.057 18.991 155.898 19.536 155.898 20.0995C155.898 20.5404 155.965 20.9446 156.1 21.3121C156.247 21.6673 156.504 21.998 156.871 22.3042C157.251 22.6104 157.79 22.8983 158.488 23.1678C159.186 23.4372 160.093 23.7006 161.207 23.9578C162.812 24.313 164.123 24.7478 165.139 25.2623C166.168 25.7645 166.927 26.3892 167.417 27.1363C167.907 27.8713 168.152 28.7654 168.152 29.8188C168.152 30.6395 167.981 31.3928 167.638 32.0787C167.295 32.7524 166.799 33.3342 166.15 33.8241C165.513 34.3141 164.741 34.6938 163.835 34.9633C162.941 35.2327 161.936 35.3675 160.821 35.3675C159.143 35.3675 157.723 35.0919 156.559 34.5407C155.408 33.9772 154.532 33.2423 153.932 32.3359C153.344 31.4173 153.05 30.4435 153.05 29.4146H155.236C155.31 30.4435 155.634 31.258 156.21 31.8582C156.786 32.4461 157.49 32.8626 158.323 33.1076C159.168 33.3526 160.001 33.475 160.821 33.475C161.948 33.475 162.892 33.3097 163.651 32.979C164.41 32.6483 164.986 32.2134 165.378 31.6745C165.77 31.1355 165.966 30.5537 165.966 29.929ZM180.408 35.3675C179.11 35.3675 177.916 35.1286 176.825 34.6509C175.748 34.1732 174.804 33.4995 173.996 32.6299C173.2 31.7602 172.581 30.7313 172.14 29.5432C171.712 28.3428 171.497 27.0322 171.497 25.6114V24.8213C171.497 23.2902 171.724 21.9061 172.177 20.669C172.63 19.4319 173.255 18.3724 174.051 17.4905C174.847 16.6086 175.754 15.9349 176.77 15.4695C177.799 14.9918 178.877 14.7529 180.004 14.7529C181.266 14.7529 182.386 14.9795 183.366 15.4327C184.346 15.8737 185.167 16.5045 185.828 17.3251C186.502 18.1335 187.01 19.0951 187.353 20.2097C187.696 21.3121 187.868 22.5308 187.868 23.8659V25.2072H172.82V23.3331H185.681V23.0759C185.657 21.9613 185.43 20.9201 185.001 19.9525C184.585 18.9726 183.96 18.1764 183.127 17.564C182.295 16.9515 181.253 16.6453 180.004 16.6453C179.073 16.6453 178.216 16.8413 177.432 17.2333C176.66 17.6252 175.993 18.1887 175.429 18.9236C174.878 19.6463 174.449 20.5098 174.143 21.5142C173.849 22.5063 173.702 23.6087 173.702 24.8213V25.6114C173.702 26.7138 173.861 27.7426 174.18 28.698C174.51 29.6412 174.976 30.4741 175.576 31.1968C176.189 31.9195 176.911 32.4829 177.744 32.8871C178.577 33.2913 179.496 33.4934 180.5 33.4934C181.676 33.4934 182.717 33.2791 183.623 32.8504C184.53 32.4094 185.344 31.7173 186.067 30.7742L187.445 31.8398C187.016 32.4768 186.477 33.0647 185.828 33.6036C185.191 34.1426 184.426 34.5713 183.532 34.8898C182.637 35.2082 181.596 35.3675 180.408 35.3675Z"
        fill="white" />
    <defs>
        <clipPath id="clip0_4534_2299">
            <rect width="38.1128" height="38.1128" fill="black" transform="translate(0.5)" />
        </clipPath>
    </defs>
</svg>